<?xml version="1.0" encoding="UTF-8"?>
<svg id="Layer_1" data-name="Layer 1" xmlns="http://www.w3.org/2000/svg" viewBox="0 0 62.4 61.1">
  <defs>
    <style>
      .cls-1 {
        fill: #1414f5;
        stroke-width: 0px;
      }
    </style>
  </defs>
  <path class="cls-1" d="m23.3,30.5h-5v6h4.9c.5,0,.9,0,1.3-.1s.8-.2,1.1-.5c.3-.2.6-.5.7-.9.2-.4.3-.8.3-1.4,0-1.1-.3-1.9-.9-2.4-.6-.5-1.4-.7-2.4-.7Z"/>
  <path class="cls-1" d="m40.1,27.3c-.7,0-1.2.1-1.6.4-.4.2-.8.5-1,.9-.3.3-.4.7-.6,1.1-.1.4-.2.7-.2,1h6.7c-.1-1.1-.5-1.9-1-2.5-.4-.6-1.2-.9-2.3-.9Z"/>
  <path class="cls-1" d="m25,26.6c.5-.4.8-1.1.8-2,0-.5-.1-.9-.3-1.2-.2-.3-.4-.6-.7-.8-.3-.2-.6-.3-1-.4s-.8-.1-1.2-.1h-4.3v5.1h4.6c.9,0,1.6-.2,2.1-.6Z"/>
  <path class="cls-1" d="m31.2,0C14,0,0,13.7,0,30.6s14,30.5,31.2,30.5,31.2-13.7,31.2-30.5S48.4,0,31.2,0Zm-.6,36.7c-.4.8-1,1.5-1.6,2-.7.5-1.5.9-2.4,1.1-.9.2-1.8.4-2.7.4h-10.1v-21.7h9.8c1,0,1.9.1,2.7.3.8.2,1.5.5,2.1.9s1,1,1.4,1.7c.3.7.5,1.5.5,2.5,0,1.1-.2,2-.7,2.7s-1.2,1.3-2.1,1.8c1.3.4,2.2,1.1,2.9,2,.6,1,.9,2.1.9,3.5-.1,1-.3,2-.7,2.8Zm5.3-16.8h8.4v2.1h-8.4c0,.1,0-2.1,0-2.1Zm1.8,16.5c.6.6,1.5.9,2.7.9.8,0,1.6-.2,2.2-.7.6-.4,1-.9,1.1-1.4h3.6c-.6,1.9-1.5,3.2-2.7,4s-2.7,1.2-4.4,1.2c-1.2,0-2.3-.2-3.2-.6-1-.4-1.8-1-2.4-1.7-.7-.7-1.2-1.6-1.5-2.6-.4-1-.5-2.1-.5-3.3s.2-2.3.6-3.3c.4-1,.9-1.9,1.6-2.6.7-.7,1.5-1.3,2.4-1.7.9-.4,2-.6,3.1-.6,1.3,0,2.4.3,3.3.8,1,.5,1.7,1.2,2.3,2.1s1,1.9,1.3,3,.4,2.3.3,3.5h-10.8c0,1.2.4,2.4,1,3Z"/>
</svg>