<?xml version="1.0" encoding="UTF-8"?>
<svg id="Layer_1" data-name="Layer 1" xmlns="http://www.w3.org/2000/svg" viewBox="0 0 33.74 21.9">
  <defs>
    <style>
      .cls-1 {
        fill: #1414f5;
        stroke-width: 0px;
      }
    </style>
  </defs>
  <path class="cls-1" d="m33.4,11.4c-.3-1.1-.7-2.1-1.3-3-.6-.9-1.3-1.6-2.3-2.1-.9-.5-2-.8-3.3-.8-1.1,0-2.2.2-3.1.6-.9.4-1.7,1-2.4,1.7s-1.2,1.6-1.6,2.6c-.4,1-.6,2.1-.6,3.3s.1,2.3.5,3.3c.3,1,.8,1.9,1.5,2.6.6.7,1.4,1.3,2.4,1.7.9.4,2,.6,3.2.6,1.7,0,3.2-.4,4.4-1.2,1.2-.8,2.1-2.1,2.7-4h-3.6c-.1.5-.5,1-1.1,1.4-.6.5-1.4.7-2.2.7-1.2,0-2.1-.3-2.7-.9-.6-.6-1-1.8-1-3h10.8c.1-1.2,0-2.4-.3-3.5Zm-10.5.8c0-.3.1-.6.2-1,.2-.4.3-.8.6-1.1.2-.4.6-.7,1-.9.4-.3.9-.4,1.6-.4,1.1,0,1.9.3,2.3.9.5.6.9,1.4,1,2.5h-6.7Z"/>
  <path class="cls-1" d="m16.6,11.9c-.7-.9-1.6-1.6-2.9-2,.9-.5,1.6-1.1,2.1-1.8s.7-1.6.7-2.7c0-1-.2-1.8-.5-2.5-.4-.7-.8-1.3-1.4-1.7-.6-.4-1.3-.7-2.1-.9s-1.7-.3-2.7-.3H0v21.7h10.1c.9,0,1.8-.2,2.7-.4.9-.2,1.7-.6,2.4-1.1.6-.5,1.2-1.2,1.6-2,.4-.8.6-1.8.7-2.8,0-1.4-.3-2.5-.9-3.5ZM4.5,3.6h4.3c.4,0,.8,0,1.2.1.4.1.7.2,1,.4s.5.5.7.8.3.7.3,1.2c0,.9-.3,1.6-.8,2s-1.2.6-2.1.6h-4.6V3.6Zm8,12.9c-.1.4-.4.7-.7.9-.3.3-.7.4-1.1.5-.4.1-.8.1-1.3.1h-4.9v-6h5c1,0,1.8.2,2.4.7.6.5.9,1.3.9,2.4,0,.6-.1,1-.3,1.4Z"/>
</svg>