<?xml version="1.0" encoding="utf-8"?>
<!-- Generator: Adobe Illustrator 16.0.0, SVG Export Plug-In . SVG Version: 6.00 Build 0)  -->
<!DOCTYPE svg PUBLIC "-//W3C//DTD SVG 1.1//EN" "http://www.w3.org/Graphics/SVG/1.1/DTD/svg11.dtd">
<svg version="1.1" id="Layer_1" xmlns="http://www.w3.org/2000/svg" xmlns:xlink="http://www.w3.org/1999/xlink" x="0px" y="0px"
	 width="65px" height="65px" viewBox="0 0 65 65" enable-background="new 0 0 65 65" xml:space="preserve">
<g>
	<path fill="#EFCDCA" d="M24.646,32.987h-4.978v5.966h4.884c0.453,0,0.883-0.041,1.285-0.137c0.41-0.093,0.771-0.241,1.078-0.458
		c0.308-0.21,0.561-0.5,0.746-0.867c0.184-0.359,0.272-0.832,0.272-1.401c0-1.118-0.302-1.912-0.9-2.393
		C26.432,33.222,25.629,32.987,24.646,32.987z"/>
	<path fill="#EFCDCA" d="M41.438,29.762c-0.66,0-1.206,0.116-1.646,0.353c-0.425,0.232-0.777,0.523-1.047,0.865
		c-0.268,0.346-0.445,0.713-0.555,1.105c-0.104,0.381-0.17,0.729-0.188,1.033h6.729c-0.101-1.101-0.462-1.913-0.953-2.483
		C43.285,30.07,42.454,29.762,41.438,29.762z"/>
	<path fill="#EFCDCA" d="M26.313,29.119c0.527-0.4,0.783-1.063,0.783-1.971c0-0.504-0.087-0.92-0.258-1.244
		c-0.176-0.324-0.408-0.577-0.705-0.754c-0.294-0.184-0.623-0.311-1.008-0.381c-0.377-0.077-0.773-0.106-1.178-0.106h-4.281v5.064
		h4.631C25.112,29.727,25.781,29.527,26.313,29.119z"/>
	<path fill="#EFCDCA" d="M32.499,2.54c-17.22,0-31.18,13.671-31.18,30.535c0,16.863,13.96,30.535,31.18,30.535
		c17.222,0,31.182-13.672,31.182-30.535C63.681,16.21,49.721,2.54,32.499,2.54z M31.896,39.193
		c-0.407,0.805-0.963,1.459-1.646,1.961c-0.688,0.511-1.479,0.881-2.365,1.127c-0.876,0.241-1.786,0.364-2.718,0.364h-10.08V20.974
		h9.804c0.994,0,1.892,0.089,2.713,0.275c0.816,0.18,1.512,0.48,2.1,0.894c0.578,0.414,1.034,0.961,1.357,1.653
		c0.316,0.68,0.475,1.535,0.475,2.542c0,1.09-0.238,2.001-0.713,2.73c-0.477,0.728-1.18,1.324-2.123,1.787
		c1.283,0.384,2.229,1.06,2.857,2.018c0.634,0.967,0.941,2.125,0.941,3.477C32.499,37.449,32.298,38.397,31.896,39.193z
		 M37.157,22.426h8.427v2.139h-8.427V22.426z M39.026,38.88c0.619,0.632,1.517,0.947,2.674,0.947c0.836,0,1.556-0.218,2.16-0.658
		c0.601-0.437,0.96-0.904,1.107-1.389h3.639c-0.585,1.89-1.473,3.238-2.686,4.049c-1.196,0.814-2.655,1.222-4.36,1.222
		c-1.188,0-2.253-0.203-3.212-0.598c-0.957-0.396-1.755-0.956-2.428-1.686c-0.658-0.731-1.171-1.599-1.531-2.614
		c-0.361-1.013-0.543-2.131-0.543-3.345c0-1.174,0.189-2.27,0.561-3.282c0.37-1.016,0.892-1.894,1.571-2.63
		c0.685-0.739,1.497-1.323,2.442-1.749c0.947-0.424,1.984-0.639,3.14-0.639c1.272,0,2.392,0.255,3.345,0.775
		c0.956,0.513,1.735,1.21,2.349,2.081c0.614,0.867,1.049,1.862,1.324,2.978c0.269,1.113,0.362,2.276,0.287,3.492H38
		C38.004,37.077,38.405,38.254,39.026,38.88z"/>
</g>
</svg>
