<?xml version="1.0" encoding="UTF-8"?>
<svg id="Layer_1" data-name="Layer 1" xmlns="http://www.w3.org/2000/svg" viewBox="0 0 48.7 31.61">
  <defs>
    <style>
      .cls-1 {
        fill: #1414f5;
        stroke-width: 0px;
      }
    </style>
  </defs>
  <path class="cls-1" d="m44.03,2.02h-12.13s0,3.18,0,3.03h12.13v-3.03Z"/>
  <path class="cls-1" d="m48.21,16.46c-.43-1.59-1.01-3.03-1.88-4.33-.87-1.3-1.88-2.31-3.32-3.03-1.3-.72-2.89-1.15-4.76-1.15-1.59,0-3.18.29-4.48.87-1.3.58-2.45,1.44-3.46,2.45s-1.73,2.31-2.31,3.75c-.58,1.44-.87,3.03-.87,4.76s.14,3.32.72,4.76c.43,1.44,1.15,2.74,2.17,3.75.87,1.01,2.02,1.88,3.46,2.45,1.3.58,2.89.87,4.62.87,2.45,0,4.62-.58,6.35-1.73,1.73-1.15,3.03-3.03,3.9-5.77h-5.2c-.14.72-.72,1.44-1.59,2.02-.87.72-2.02,1.01-3.18,1.01-1.73,0-3.03-.43-3.9-1.3-.87-.87-1.44-2.6-1.44-4.33h15.59c.14-1.73,0-3.46-.43-5.05Zm-15.16,1.15c0-.43.14-.87.29-1.44.29-.58.43-1.15.87-1.59.29-.58.87-1.01,1.44-1.3.58-.43,1.3-.58,2.31-.58,1.59,0,2.74.43,3.32,1.3.72.87,1.3,2.02,1.44,3.61h-9.67Z"/>
  <path class="cls-1" d="m23.96,17.18c-1.01-1.3-2.31-2.31-4.19-2.89,1.3-.72,2.31-1.59,3.03-2.6s1.01-2.31,1.01-3.9c0-1.44-.29-2.6-.72-3.61-.58-1.01-1.15-1.88-2.02-2.45-.87-.58-1.88-1.01-3.03-1.3s-2.45-.43-3.9-.43H0v31.33h14.58c1.3,0,2.6-.29,3.9-.58,1.3-.29,2.45-.87,3.46-1.59.87-.72,1.73-1.73,2.31-2.89.58-1.15.87-2.6,1.01-4.04,0-2.02-.43-3.61-1.3-5.05ZM6.5,5.2h6.21c.58,0,1.15,0,1.73.14.58.14,1.01.29,1.44.58s.72.72,1.01,1.15.43,1.01.43,1.73c0,1.3-.43,2.31-1.15,2.89s-1.73.87-3.03.87h-6.64v-7.36Zm11.55,18.62c-.14.58-.58,1.01-1.01,1.3-.43.43-1.01.58-1.59.72-.58.14-1.15.14-1.88.14h-7.07v-8.66h7.22c1.44,0,2.6.29,3.46,1.01.87.72,1.3,1.88,1.3,3.46,0,.87-.14,1.44-.43,2.02Z"/>
</svg>