<?xml version="1.0" encoding="UTF-8"?>
<svg id="Layer_1" data-name="Layer 1" xmlns="http://www.w3.org/2000/svg" viewBox="0 0 62.48 40.56">
  <defs>
    <style>
      .cls-1 {
        fill: #1414f5;
        stroke-width: 0px;
      }
    </style>
  </defs>
  <path class="cls-1" d="m56.49,2.59h-15.56s0,4.07,0,3.89h15.56v-3.89Z"/>
  <path class="cls-1" d="m61.86,21.11c-.56-2.04-1.3-3.89-2.41-5.56-1.11-1.67-2.41-2.96-4.26-3.89-1.67-.93-3.7-1.48-6.11-1.48-2.04,0-4.07.37-5.74,1.11-1.67.74-3.15,1.85-4.44,3.15s-2.22,2.96-2.96,4.82c-.74,1.85-1.11,3.89-1.11,6.11s.19,4.26.93,6.11c.56,1.85,1.48,3.52,2.78,4.82,1.11,1.3,2.59,2.41,4.44,3.15,1.67.74,3.7,1.11,5.93,1.11,3.15,0,5.93-.74,8.15-2.22,2.22-1.48,3.89-3.89,5-7.41h-6.67c-.19.93-.93,1.85-2.04,2.59-1.11.93-2.59,1.3-4.07,1.3-2.22,0-3.89-.56-5-1.67-1.11-1.11-1.85-3.33-1.85-5.56h20c.19-2.22,0-4.44-.56-6.48Zm-19.45,1.48c0-.56.19-1.11.37-1.85.37-.74.56-1.48,1.11-2.04.37-.74,1.11-1.3,1.85-1.67.74-.56,1.67-.74,2.96-.74,2.04,0,3.52.56,4.26,1.67.93,1.11,1.67,2.59,1.85,4.63h-12.41Z"/>
  <path class="cls-1" d="m30.74,22.04c-1.3-1.67-2.96-2.96-5.37-3.7,1.67-.93,2.96-2.04,3.89-3.33s1.3-2.96,1.3-5c0-1.85-.37-3.33-.93-4.63-.74-1.3-1.48-2.41-2.59-3.15-1.11-.74-2.41-1.3-3.89-1.67s-3.15-.56-5-.56H0v40.19h18.71c1.67,0,3.33-.37,5-.74,1.67-.37,3.15-1.11,4.44-2.04,1.11-.93,2.22-2.22,2.96-3.7.74-1.48,1.11-3.33,1.3-5.19,0-2.59-.56-4.63-1.67-6.48ZM8.33,6.67h7.96c.74,0,1.48,0,2.22.19.74.19,1.3.37,1.85.74s.93.93,1.3,1.48.56,1.3.56,2.22c0,1.67-.56,2.96-1.48,3.7s-2.22,1.11-3.89,1.11h-8.52V6.67Zm14.82,23.89c-.19.74-.74,1.3-1.3,1.67-.56.56-1.3.74-2.04.93-.74.19-1.48.19-2.41.19h-9.07v-11.11h9.26c1.85,0,3.33.37,4.44,1.3,1.11.93,1.67,2.41,1.67,4.44,0,1.11-.19,1.85-.56,2.59Z"/>
</svg>