<?xml version="1.0" encoding="utf-8"?>
<!-- Generator: Adobe Illustrator 20.1.0, SVG Export Plug-In . SVG Version: 6.00 Build 0)  -->
<svg version="1.1" id="Layer_1" xmlns="http://www.w3.org/2000/svg" xmlns:xlink="http://www.w3.org/1999/xlink" x="0px" y="0px"
	 viewBox="0 0 65 65" style="enable-background:new 0 0 65 65;" xml:space="preserve">
<style type="text/css">
	.st0{fill:#5464A8;}
</style>
<g>
	<path class="st0" d="M24.6,33h-5v6h4.9c0.5,0,0.9,0,1.3-0.1c0.4-0.1,0.8-0.2,1.1-0.5c0.3-0.2,0.6-0.5,0.7-0.9
		c0.2-0.4,0.3-0.8,0.3-1.4c0-1.1-0.3-1.9-0.9-2.4C26.4,33.2,25.6,33,24.6,33z"/>
	<path class="st0" d="M41.4,29.8c-0.7,0-1.2,0.1-1.6,0.4c-0.4,0.2-0.8,0.5-1,0.9c-0.3,0.3-0.4,0.7-0.6,1.1c-0.1,0.4-0.2,0.7-0.2,1
		h6.7c-0.1-1.1-0.5-1.9-1-2.5C43.3,30.1,42.5,29.8,41.4,29.8z"/>
	<path class="st0" d="M26.3,29.1c0.5-0.4,0.8-1.1,0.8-2c0-0.5-0.1-0.9-0.3-1.2c-0.2-0.3-0.4-0.6-0.7-0.8c-0.3-0.2-0.6-0.3-1-0.4
		c-0.4-0.1-0.8-0.1-1.2-0.1h-4.3v5.1h4.6C25.1,29.7,25.8,29.5,26.3,29.1z"/>
	<path class="st0" d="M32.5,2.5C15.3,2.5,1.3,16.2,1.3,33.1c0,16.9,14,30.5,31.2,30.5c17.2,0,31.2-13.7,31.2-30.5
		C63.7,16.2,49.7,2.5,32.5,2.5z M31.9,39.2c-0.4,0.8-1,1.5-1.6,2c-0.7,0.5-1.5,0.9-2.4,1.1c-0.9,0.2-1.8,0.4-2.7,0.4H15.1V21h9.8
		c1,0,1.9,0.1,2.7,0.3c0.8,0.2,1.5,0.5,2.1,0.9c0.6,0.4,1,1,1.4,1.7c0.3,0.7,0.5,1.5,0.5,2.5c0,1.1-0.2,2-0.7,2.7
		c-0.5,0.7-1.2,1.3-2.1,1.8c1.3,0.4,2.2,1.1,2.9,2c0.6,1,0.9,2.1,0.9,3.5C32.5,37.4,32.3,38.4,31.9,39.2z M37.2,22.4h8.4v2.1h-8.4
		C37.2,24.6,37.2,22.4,37.2,22.4z M39,38.9c0.6,0.6,1.5,0.9,2.7,0.9c0.8,0,1.6-0.2,2.2-0.7c0.6-0.4,1-0.9,1.1-1.4h3.6
		c-0.6,1.9-1.5,3.2-2.7,4c-1.2,0.8-2.7,1.2-4.4,1.2c-1.2,0-2.3-0.2-3.2-0.6c-1-0.4-1.8-1-2.4-1.7c-0.7-0.7-1.2-1.6-1.5-2.6
		c-0.4-1-0.5-2.1-0.5-3.3c0-1.2,0.2-2.3,0.6-3.3c0.4-1,0.9-1.9,1.6-2.6c0.7-0.7,1.5-1.3,2.4-1.7c0.9-0.4,2-0.6,3.1-0.6
		c1.3,0,2.4,0.3,3.3,0.8c1,0.5,1.7,1.2,2.3,2.1c0.6,0.9,1,1.9,1.3,3c0.3,1.1,0.4,2.3,0.3,3.5H38C38,37.1,38.4,38.3,39,38.9z"/>
</g>
</svg>
