<?xml version="1.0" encoding="UTF-8"?>
<svg id="Layer_1" data-name="Layer 1" xmlns="http://www.w3.org/2000/svg" viewBox="0 0 30.88 30.88">
  <defs>
    <style>
      .cls-1 {
        fill: #1414f5;
        stroke-width: 0px;
      }
    </style>
  </defs>
  <path class="cls-1" d="m15.44,0C6.92,0,0,6.92,0,15.44s6.92,15.44,15.44,15.44,15.44-6.91,15.44-15.44S23.96,0,15.44,0Zm0,2.57c3,0,5.9,1.04,8.21,2.96-1.4,1.77-3.6,3.31-6.33,4.47-1.49-2.77-3.21-5.15-5.05-7.02,1.04-.27,2.1-.41,3.17-.41Zm-5.82,1.41c1.86,1.85,3.6,4.2,5.13,6.95,0,0,0,0,.01,0h-.01s0,0,0,0c-2.91.89-6.23,1.4-9.78,1.4-.68,0-1.34-.02-1.99-.06.92-3.59,3.34-6.61,6.64-8.29ZM2.57,15.45c0-.21,0-.41.02-.61.73.04,1.47.04,2.22.04,4.06-.04,7.83-.68,11.07-1.72.31.63.6,1.28.87,1.95-.39.08-.78.2-1.15.34-4.43,1.86-7.92,4.86-9.81,8.49-2.08-2.34-3.22-5.36-3.22-8.49Zm12.87,12.87c-2.86,0-5.64-.95-7.89-2.71,1.71-3.4,4.77-6.21,8.62-7.95.36-.17.85-.31,1.4-.43h0c.46,1.28.87,2.6,1.23,3.97.54,2.06.94,4.16,1.19,6.28-1.45.55-2.99.84-4.55.84Zm6.95-2.05c-.25-2.15-.65-4.27-1.2-6.35-.27-1.05-.58-2.05-.92-3.04,0,0,0,0,0,0h0s0,0,0,0c2.52-.21,5.55-.18,7.95,0-.43,3.85-2.57,7.3-5.83,9.39Zm-2.9-11.58c-.34-.85-.68-1.69-1.06-2.49,3.08-1.33,5.45-3.09,6.81-5.08,1.78,2.1,2.85,4.72,3.03,7.47-2.78-.15-6.11-.15-8.78.1Z"/>
</svg>