<?xml version="1.0" encoding="UTF-8"?>
<svg id="Layer_1" data-name="Layer 1" xmlns="http://www.w3.org/2000/svg" viewBox="0 0 62.4 61.1">
  <defs>
    <style>
      .cls-1 {
        fill: #1414f5;
        stroke-width: 0px;
      }
    </style>
  </defs>
  <path class="cls-1" d="m31.36,29.96c.37-.14.76-.26,1.15-.34-.27-.67-.56-1.32-.87-1.95-3.24,1.04-7.01,1.68-11.07,1.72-.75,0-1.49,0-2.22-.04-.02.2-.02.4-.02.61,0,3.13,1.14,6.15,3.22,8.49,1.89-3.63,5.38-6.63,9.81-8.49Z"/>
  <path class="cls-1" d="m33.33,31.74c-.55.12-1.04.26-1.4.43-3.85,1.74-6.91,4.55-8.62,7.95,2.25,1.76,5.03,2.71,7.89,2.71,1.56,0,3.1-.29,4.55-.84-.25-2.12-.65-4.22-1.19-6.28-.36-1.37-.77-2.69-1.23-3.96Z"/>
  <path class="cls-1" d="m39.41,20.04c-2.31-1.92-5.21-2.97-8.21-2.96-1.07,0-2.13.14-3.17.41,1.84,1.87,3.56,4.25,5.05,7.02,2.73-1.16,4.93-2.7,6.33-4.47Z"/>
  <path class="cls-1" d="m30.51,25.45c-1.53-2.76-3.27-5.11-5.13-6.96-3.3,1.68-5.72,4.7-6.64,8.29.65.04,1.31.06,1.99.06,3.55,0,6.88-.51,9.79-1.4Z"/>
  <path class="cls-1" d="m36.03,31.38c.34.99.65,2,.92,3.05.55,2.08.95,4.2,1.2,6.35,3.26-2.09,5.4-5.54,5.83-9.39-2.4-.18-5.43-.21-7.95,0Z"/>
  <path class="cls-1" d="m34.19,26.71c.38.8.72,1.64,1.06,2.49,2.67-.25,6-.25,8.78-.1-.18-2.75-1.25-5.37-3.03-7.47-1.36,1.99-3.73,3.75-6.81,5.08Z"/>
  <path class="cls-1" d="m31.2,0C14,0,0,13.7,0,30.6s14,30.5,31.2,30.5,31.2-13.7,31.2-30.5S48.4,0,31.2,0Zm0,45.39c-8.52,0-15.44-6.92-15.44-15.44s6.92-15.44,15.44-15.44,15.44,6.91,15.44,15.44-6.92,15.44-15.44,15.44Z"/>
</svg>