<?xml version="1.0" encoding="UTF-8"?>
<svg id="Layer_1" data-name="Layer 1" xmlns="http://www.w3.org/2000/svg" viewBox="0 0 30.75 30.73">
  <defs>
    <style>
      .cls-1 {
        fill: #1414f5;
        stroke-width: 0px;
      }
    </style>
  </defs>
  <path class="cls-1" d="m23.57,5.3c-1.02,0-1.85.83-1.85,1.85s.83,1.85,1.85,1.85,1.85-.83,1.85-1.85-.83-1.85-1.85-1.85Z"/>
  <path class="cls-1" d="m15.36,7.46c-4.36,0-7.9,3.54-7.9,7.9s3.54,7.9,7.9,7.9,7.9-3.54,7.9-7.9-3.54-7.9-7.9-7.9Zm3.63,11.53c-2,2-5.25,2-7.25,0-2-2-2-5.25,0-7.25s5.25-2,7.25,0,2,5.25,0,7.25Z"/>
  <path class="cls-1" d="m30.66,9.02c-.07-1.63-.33-2.75-.71-3.73-.4-1.01-.92-1.86-1.78-2.72-.85-.85-1.71-1.38-2.72-1.77-.98-.38-2.1-.63-3.74-.71-1.64-.07-2.16-.09-6.34-.09s-4.7.02-6.34.09c-1.63.07-2.75.33-3.73.71-1.01.39-1.87.91-2.72,1.77-.86.85-1.39,1.71-1.78,2.72-.38.97-.64,2.09-.71,3.73s-.09,2.16-.09,6.34.02,4.7.09,6.34c.07,1.63.33,2.75.71,3.73.39,1.01.91,1.87,1.77,2.72.85.86,1.71,1.39,2.72,1.78.97.38,2.09.63,3.73.71,1.64.07,2.16.09,6.34.09s4.7-.02,6.34-.09,2.76-.33,3.74-.71c1.01-.4,1.87-.92,2.72-1.78.86-.85,1.39-1.71,1.78-2.72.37-.97.63-2.09.71-3.73h.01c.07-1.64.09-2.17.09-6.34s-.02-4.7-.09-6.34Zm-2.78,12.55c-.07,1.5-.32,2.32-.53,2.86-.28.72-.61,1.23-1.15,1.77s-1.05.87-1.77,1.15c-.55.21-1.36.46-2.86.53-1.63.07-2.11.09-6.22.09s-4.6-.02-6.22-.09c-1.5-.07-2.32-.32-2.86-.53-.72-.28-1.23-.61-1.77-1.15-.54-.54-.87-1.05-1.15-1.77-.21-.55-.46-1.36-.53-2.86-.08-1.63-.09-2.12-.09-6.22s.02-4.59.09-6.21c.07-1.5.32-2.32.53-2.86.28-.72.61-1.23,1.15-1.77.54-.54,1.05-.87,1.77-1.15.55-.21,1.36-.46,2.86-.53,1.42-.06,1.97-.08,4.84-.08h1.38c4.11,0,4.6.02,6.22.09,1.5.07,2.32.32,2.86.53.72.28,1.23.61,1.77,1.15.54.54.87,1.05,1.15,1.77.21.55.46,1.36.53,2.86.07,1.62.09,2.11.09,6.21s-.02,4.59-.09,6.21Z"/>
</svg>