<?xml version="1.0" encoding="UTF-8"?>
<svg id="Layer_1" data-name="Layer 1" xmlns="http://www.w3.org/2000/svg" viewBox="0 0 62.4 61.1">
  <defs>
    <style>
      .cls-1 {
        fill: #1414f5;
        stroke-width: 0px;
      }
    </style>
  </defs>
  <circle class="cls-1" cx="31.16" cy="29.89" r="5.13" transform="translate(-12.01 30.79) rotate(-45)"/>
  <path class="cls-1" d="m43.15,20.82c-.28-.72-.61-1.23-1.15-1.77-.54-.54-1.05-.87-1.77-1.15-.54-.21-1.36-.46-2.86-.53-1.62-.07-2.11-.09-6.22-.09-.51,0-.97,0-1.38,0h0c-2.87,0-3.42.02-4.84.08-1.5.07-2.31.32-2.86.53-.72.28-1.23.61-1.77,1.15s-.87,1.05-1.15,1.77c-.21.54-.46,1.36-.53,2.86-.07,1.62-.09,2.11-.09,6.21s.01,4.59.09,6.22c.07,1.5.32,2.31.53,2.86.28.72.61,1.23,1.15,1.77s1.05.87,1.77,1.15c.54.21,1.36.46,2.86.53,1.62.07,2.11.09,6.22.09s4.59-.02,6.22-.09c1.5-.07,2.31-.32,2.86-.53.72-.28,1.23-.61,1.77-1.15.54-.54.87-1.05,1.15-1.77.21-.54.46-1.36.53-2.86.07-1.62.09-2.11.09-6.21s-.02-4.59-.09-6.21c-.07-1.5-.32-2.31-.53-2.86Zm-11.99,16.97c-4.36,0-7.9-3.54-7.9-7.9s3.54-7.9,7.9-7.9h0,0,0c4.36,0,7.9,3.54,7.9,7.9s-3.54,7.9-7.9,7.9Zm10.06-16.11c0,1.02-.83,1.85-1.85,1.85s-1.85-.83-1.85-1.85.83-1.85,1.85-1.85h0c1.02,0,1.85.83,1.85,1.85h0Z"/>
  <path class="cls-1" d="m31.2,0C14,0,0,13.7,0,30.6s14,30.5,31.2,30.5,31.2-13.7,31.2-30.5S48.4,0,31.2,0Zm15.25,36.23c-.08,1.64-.34,2.76-.71,3.73-.39,1.01-.92,1.87-1.78,2.72-.85.86-1.71,1.38-2.72,1.78-.98.38-2.1.64-3.74.71-1.64.07-2.16.09-6.34.09s-4.7-.02-6.34-.09c-1.64-.08-2.76-.33-3.73-.71-1.01-.39-1.87-.92-2.72-1.78-.86-.85-1.38-1.71-1.77-2.72-.38-.98-.64-2.1-.71-3.73-.07-1.64-.09-2.16-.09-6.34s.02-4.7.09-6.34c.07-1.64.33-2.76.71-3.73.39-1.01.92-1.87,1.78-2.72.85-.86,1.71-1.38,2.72-1.77.98-.38,2.1-.64,3.73-.71,1.64-.07,2.17-.09,6.34-.09h0,0,0c4.18,0,4.7.02,6.34.09,1.64.08,2.76.33,3.74.71,1.01.39,1.87.92,2.72,1.77.86.86,1.38,1.71,1.78,2.72.38.98.64,2.1.71,3.73.07,1.64.09,2.17.09,6.34s-.02,4.7-.09,6.34Z"/>
</svg>