<?xml version="1.0" encoding="utf-8"?>
<!-- Generator: Adobe Illustrator 16.0.0, SVG Export Plug-In . SVG Version: 6.00 Build 0)  -->
<!DOCTYPE svg PUBLIC "-//W3C//DTD SVG 1.1//EN" "http://www.w3.org/Graphics/SVG/1.1/DTD/svg11.dtd">
<svg version="1.1" id="Layer_1" xmlns="http://www.w3.org/2000/svg" xmlns:xlink="http://www.w3.org/1999/xlink" x="0px" y="0px"
	 width="65px" height="65px" viewBox="0 0 65 65" enable-background="new 0 0 65 65" xml:space="preserve">
<g>
	<path fill="#EFCDCA" d="M33.829,30.17v-0.046c-0.009,0.015-0.021,0.031-0.028,0.046H33.829z"/>
	<path fill="#EFCDCA" d="M32.512,2.447c-17.246,0-31.229,13.693-31.229,30.58c0,16.891,13.981,30.583,31.229,30.583
		c17.249,0,31.229-13.692,31.229-30.583C63.741,16.138,49.761,2.447,32.512,2.447z M26.521,42.269h-4.702V28.118h4.702V42.269z
		 M24.169,26.187h-0.029c-1.578,0-2.599-1.088-2.599-2.447c0-1.388,1.051-2.444,2.661-2.444c1.61,0,2.599,1.057,2.631,2.444
		C26.831,25.099,25.811,26.187,24.169,26.187z M43.486,42.269h-4.704v-7.57c0-1.901-0.68-3.199-2.385-3.199
		c-1.296,0-2.074,0.876-2.414,1.718c-0.126,0.305-0.155,0.726-0.155,1.149v7.901h-4.703c0,0,0.062-12.823,0-14.151h4.703v2.009
		c0.624-0.965,1.739-2.341,4.239-2.341c3.098,0,5.417,2.025,5.417,6.373v8.11H43.486z"/>
</g>
</svg>
