<?xml version="1.0" encoding="utf-8"?>
<!-- Generator: Adobe Illustrator 20.1.0, SVG Export Plug-In . SVG Version: 6.00 Build 0)  -->
<svg version="1.1" id="Layer_1" xmlns="http://www.w3.org/2000/svg" xmlns:xlink="http://www.w3.org/1999/xlink" x="0px" y="0px"
	 viewBox="0 0 65 65" style="enable-background:new 0 0 65 65;" xml:space="preserve">
<style type="text/css">
	.st0{fill:#5464A8;}
</style>
<g>
	<path class="st0" d="M33.8,30.2L33.8,30.2C33.8,30.1,33.8,30.2,33.8,30.2L33.8,30.2z"/>
	<path class="st0" d="M32.5,2.4C15.3,2.4,1.3,16.1,1.3,33c0,16.9,14,30.6,31.2,30.6c17.2,0,31.2-13.7,31.2-30.6
		C63.7,16.1,49.8,2.4,32.5,2.4z M26.5,42.3h-4.7V28.1h4.7V42.3z M24.2,26.2L24.2,26.2c-1.6,0-2.6-1.1-2.6-2.4c0-1.4,1.1-2.4,2.7-2.4
		c1.6,0,2.6,1.1,2.6,2.4C26.8,25.1,25.8,26.2,24.2,26.2z M43.5,42.3h-4.7v-7.6c0-1.9-0.7-3.2-2.4-3.2c-1.3,0-2.1,0.9-2.4,1.7
		c-0.1,0.3-0.2,0.7-0.2,1.1v7.9h-4.7c0,0,0.1-12.8,0-14.2h4.7v2c0.6-1,1.7-2.3,4.2-2.3c3.1,0,5.4,2,5.4,6.4L43.5,42.3L43.5,42.3
		L43.5,42.3z"/>
</g>
</svg>
