<?xml version="1.0" encoding="UTF-8"?>
<svg id="OBJECTS" xmlns="http://www.w3.org/2000/svg" viewBox="0 0 37.95 60.66">
  <defs>
    <style>
      .cls-1 {
        fill: #e31d88;
        stroke-width: 0px;
      }
    </style>
  </defs>
  <g id="E_-_283_minus_location" data-name="E - 283, minus, location">
    <g>
      <path class="cls-1" d="m31.69,18.98c0-6.96-5.65-12.62-12.62-12.62s-12.62,5.65-12.62,12.62,5.65,12.62,12.62,12.62,12.62-5.75,12.62-12.62Zm-12.62,10.09c-5.55,0-10.09-4.54-10.09-10.09s4.54-10.09,10.09-10.09,10.09,4.54,10.09,10.09-4.54,10.09-10.09,10.09Z"/>
      <path class="cls-1" d="m19.08,60.66h0c3.94-6.76,18.77-31.69,18.87-41.69.1-10.5-8.48-18.98-18.98-18.98S.1,8.48,0,18.87c.1,10.9,15.04,35.13,19.08,41.79m0-51.78c9.08,0,12.62,7.64,12.62,10.09-6.25,13.79-4.71,6.25-12.62,12.62-7.61-5.05-11.42-2.42-11.42-12.62,0-8.98,2.44-10.09,11.42-10.09Z"/>
    </g>
  </g>
</svg>