<?xml version="1.0" encoding="utf-8"?>
<!-- Generator: Adobe Illustrator 16.0.0, SVG Export Plug-In . SVG Version: 6.00 Build 0)  -->
<!DOCTYPE svg PUBLIC "-//W3C//DTD SVG 1.1//EN" "http://www.w3.org/Graphics/SVG/1.1/DTD/svg11.dtd">
<svg version="1.1" id="Football_Genius" xmlns="http://www.w3.org/2000/svg" xmlns:xlink="http://www.w3.org/1999/xlink" x="0px"
	 y="0px" width="42px" height="42px" viewBox="0 0 42 42" enable-background="new 0 0 42 42" xml:space="preserve">
<pattern  x="-28.5" y="71.5" width="23.311" height="23.435" patternUnits="userSpaceOnUse" id="New_Pattern_26" viewBox="0 -23.435 23.311 23.435" overflow="visible">
	<g>
		<polygon fill="none" points="0,-23.436 23.311,-23.436 23.311,0 0,0 		"/>
		
			<image overflow="visible" width="187" height="188" xlink:href="81B1E5E0.jpg"  transform="matrix(0.1247 0 0 0.1247 0 -23.4355)">
		</image>
	</g>
</pattern>
<pattern  x="-28.5" y="71.5" width="23.125" height="23" patternUnits="userSpaceOnUse" id="New_Pattern_29" viewBox="0 -23 23.125 23" overflow="visible">
	<g>
		<polygon fill="none" points="0,-23 23.125,-23 23.125,0 0,0 		"/>
		<image overflow="visible" width="186" height="185" xlink:href="81B1E5E1.jpg"  transform="matrix(0.1243 0 0 0.1243 0 -23)">
		</image>
	</g>
</pattern>
<ellipse fill="url(#New_Pattern_29)" cx="20.869" cy="20.961" rx="20.74" ry="20.897"/>
<pattern  id="SVGID_1_" xlink:href="#New_Pattern_26" patternTransform="matrix(1 0 0 -1 -228.5625 -16128.6211)">
</pattern>
<path fill="url(#SVGID_1_)" d="M20.869,0.064C9.414,0.064,0.128,9.42,0.128,20.961s9.286,20.896,20.741,20.896
	s20.74-9.355,20.74-20.896S32.324,0.064,20.869,0.064z M20.953,39.609c-10.175,0-18.423-8.311-18.423-18.563
	c0-10.251,8.249-18.562,18.423-18.562s18.423,8.311,18.423,18.562C39.376,31.299,31.128,39.609,20.953,39.609z"/>
<image overflow="visible" width="403" height="330" xlink:href="81B1E5E0.png"  transform="matrix(0.0839 0 0 0.0849 3.6958 7.4722)">
</image>
</svg>
