<?xml version="1.0" encoding="utf-8"?>
<!-- Generator: Adobe Illustrator 27.9.0, SVG Export Plug-In . SVG Version: 6.00 Build 0)  -->
<svg version="1.1" id="Layer_1" xmlns="http://www.w3.org/2000/svg" xmlns:xlink="http://www.w3.org/1999/xlink" x="0px" y="0px"
	 viewBox="0 0 50 50" style="enable-background:new 0 0 50 50;" xml:space="preserve">
<style type="text/css">
	.st0{fill:#E31D88;}
</style>
<path class="st0" d="M21.3,3c1.4-3.3,6-3.3,7.4,0l4.7,11.4c0.4,1,1.2,1.8,2.2,2.2L47,21.3c3.3,1.4,3.3,6,0,7.4l-11.4,4.7
	c-1,0.4-1.8,1.2-2.2,2.2L28.7,47c-1.4,3.3-6,3.3-7.4,0l-4.7-11.4c-0.4-1-1.2-1.8-2.2-2.2L3,28.7c-3.3-1.4-3.3-6,0-7.4l11.4-4.7
	c1-0.4,1.8-1.2,2.2-2.2L21.3,3z"/>
</svg>
