<?xml version="1.0" encoding="utf-8"?>
<!-- Generator: Adobe Illustrator 16.0.0, SVG Export Plug-In . SVG Version: 6.00 Build 0)  -->
<!DOCTYPE svg PUBLIC "-//W3C//DTD SVG 1.1//EN" "http://www.w3.org/Graphics/SVG/1.1/DTD/svg11.dtd">
<svg version="1.1" xmlns="http://www.w3.org/2000/svg" xmlns:xlink="http://www.w3.org/1999/xlink" x="0px" y="0px" width="50px"
	 height="50px" viewBox="0 0 50 50" enable-background="new 0 0 50 50" xml:space="preserve">
<g id="Layer_1">
	<path fill="none" stroke="#D57F6B" stroke-width="2" stroke-miterlimit="10" d="M46.635,25.652
		c0,11.379-9.455,20.605-21.125,20.605c-11.666,0-21.125-9.227-21.125-20.605c0-11.382,9.458-20.607,21.125-20.607
		C37.18,5.045,46.635,14.27,46.635,25.652z"/>
	<polyline fill="none" stroke="#D57F6B" stroke-width="2" stroke-miterlimit="10" points="15.647,29.132 25.639,19.926 
		35.628,29.132 	"/>
</g>
<g id="Layer_1_copy">
	<path fill="none" stroke="#B77365" stroke-width="2" stroke-miterlimit="10" d="M46.635,25.652
		c0,11.379-9.455,20.605-21.125,20.605c-11.666,0-21.125-9.227-21.125-20.605c0-11.382,9.458-20.607,21.125-20.607
		C37.18,5.045,46.635,14.27,46.635,25.652z"/>
	<polyline fill="none" stroke="#B77365" stroke-width="2" stroke-miterlimit="10" points="15.647,29.132 25.639,19.926 
		35.628,29.132 	"/>
</g>
</svg>
